<?xml version="1.0" encoding="UTF-8"?>
<svg xmlns="http://www.w3.org/2000/svg" version="1.1" viewBox="0 0 700 700">
  <!-- Generator: Adobe Illustrator 29.8.2, SVG Export Plug-In . SVG Version: 2.1.1 Build 3)  -->
  <defs>
    <style>
      .st0 {
        fill: #6fb544;
      }

      .st1 {
        fill: #98c46d;
      }

      .st2 {
        fill: #fff;
      }

      .st3 {
        fill: #1064a3;
      }

      .st4 {
        fill: #1798d3;
      }

      .st5 {
        fill: #1065a3;
      }
    </style>
  </defs>
  <g id="Layer_1">
    <path class="st5" d="M-1708.1,199.64c7.6.4,14.7,2.5,21.4,6.2,5.6,3.1,10.7,6.9,15.3,11.4,3.9,3.9,7.7,7.7,11.6,11.6,3.4,3.4,6.8,6.7,10.2,10,3.4,3.4,6.7,6.8,10.1,10.2s6.8,6.7,10.2,10.1c2.4,2.3,4.6,4.8,7,7.1,2.5,2.5,5,4.9,7.5,7.4,2.1,2.1,4.1,4.1,6.1,6.2,4.1,4.4,8.1,8.9,11.1,14.2,1.6,2.7,2.8,5.6,3.6,8.6.1.4.3.8,0,1.2-.6.3-.9-.3-1.2-.5-5.5-3.8-10.7-7.9-15.9-12-5.3-4.2-10.6-8.4-15.9-12.7-5.4-4.4-10.8-8.9-16.2-13.4-4.9-4.1-9.8-8.1-14.7-12.2-4.5-3.7-9-7.4-13.6-11-5-4-10.5-6.8-16.9-8-4-.7-7.8-.4-11.7.6-5.8,1.5-10.6,4.8-15,8.6-6.8,5.8-12.7,12.6-18.7,19.2-4.7,5.2-9.4,10.3-14.4,15.3-4.5,4.5-9.3,8.7-14.4,12.6-4.7,3.5-9.6,6.6-15,9-8.2,3.6-16.7,5.5-25.7,5.1-6.9-.3-13.6-1.6-20.1-4.2-1.2-.5-2.4-.6-3.5-1.4-.1-.8.6-1.2,1.1-1.6l13.1-13.1c11.5-11.6,23-23.2,34.5-34.8,2.5-2.6,5-5.2,7.6-7.7.7-.7,1-1.4,1-2.4v-38.7c0-.3-.1-.7-.2-1h18.8c.8.9.6,2.1.6,3.2v34.9c0,.8,0,1.5.1,2.3.1.6.5,1,1.2.9.6,0,1-.3,1.2-.9.1-.6.1-1.2.1-1.9,0-5.5.1-11.1,0-16.6,0-2.3.7-4.2,2.3-5.8,7.2-7.1,15.4-12.7,25.4-15.2,2.8-.7,5.6-.7,8.5-.7,1.1-.2,2.3-.5,3.5-.1h0Z"/>
    <path class="st4" d="M-1632.7,433.44h-152.4c-.8-.5-1.7.1-2.5-.4-8.4-2.2-14.4-7.3-18.1-15-1.8-3.8-2.5-7.9-3.1-12-.9-7-.9-14-1.3-21-.3-5.1-.7-10.2-1.9-15.2-1.2-4.9-3.5-9.2-7.2-12.7-.2-.2-.4-.4-.6-.6,0,0,0-.1-.1-.4.8-.3,1.6,0,2.3.1,5.5.9,10.8,2.7,16.1,4.1,12.1,3.3,24.4,6,36.8,7.8,7.5,1.1,15,1.8,22.6,2.2,11.9.5,23.7-.3,35.3-3.4,9.5-2.5,18.1-7,26-12.9,6.1-4.5,11.8-9.5,18-13.8,7-4.9,14.4-8.5,22.9-9.9,5.1-.9,10.2-.8,15.4-.5,8,.5,15.8,2.2,23.4,4.9,1.8.6,3.7,1.2,5.4,2.1.1.7-.4.9-.7,1.2-3.1,3.6-5.1,7.8-6.4,12.3-1.6,5.5-2.5,11.1-3,16.7-.9,9.9-1.7,19.8-2.3,29.7-.3,4.8-.6,9.6-1.4,14.3-2,10.8-8.3,18.1-18.8,21.6-.5.2-1.1.3-1.6.5-.7.4-1.5-.1-2.1.4h-.2l-.5-.1Z"/>
    <path class="st0" d="M-1832.2,343.84l15.3,1.5c15.6,1.5,31.3,2.5,47,1.8,10.9-.4,21.7-1.5,32.3-4.5,9.5-2.7,18.2-7,26.7-12.1,7.2-4.3,14.3-8.8,21.5-13.2,4.7-2.9,9.5-5.4,14.5-7.8,13.6-6.5,27.5-7.4,41.9-3,7.9,2.4,15.5,5.7,22.9,9.4,9.3,4.8,18.3,10.2,27.2,15.7-.1,1-.8.5-1.3.4-7.5-2.2-15.1-4.3-22.6-6.4-8.8-2.5-17.7-4.2-26.9-4.1-9.3.1-17.9,2.8-25.8,7.6-5,3.1-9.7,6.7-14.4,10.2-7.5,5.6-15.4,10.7-24,14.5-9.5,4.1-19.4,6.6-29.7,7.7-13.9,1.6-27.7,1-41.5-.8-22.1-2.9-43.5-8.6-64.4-16.5-.2-.1-.4-.2-.6-.3.3-.8,1.1-.2,1.9-.1h0Z"/>
    <path class="st0" d="M-1659.9,282.14c-.3,11-9.2,19.7-20,19.4-11-.2-19.6-9.3-19.3-20.3.3-10.7,9.4-19.3,20.2-19,10.7.4,19.3,9.3,19.1,19.9Z"/>
    <path class="st1" d="M-1832.2,343.84c-.7.3-1.6-.3-2.1.5-.7,0-1.3-.3-1.9-.7,1.5-.4,2.1-.3,4,.2Z"/>
    <path class="st3" d="M-1568.5,223.24H-275.5v189h-1293v-189Z"/>
    <path class="st2" d="M-1559.7,232.04h658.9v170.5h-658.9v-170.5Z"/>
    <g>
      <path class="st3" d="M-1463.7,263.54v34.8h-2.7c-3.8-18-14-29.3-26.6-29.3-16.5,0-21.5,18.8-21.5,52.6,0,31.8,7.1,43.4,20.6,43.4,3.9,0,7.4-1.1,9.3-3v-24.5c0-6.9-2.6-10.4-10.5-9.9v-2.7h39.8v2.7c-7.1.3-8.6,3-8.6,17v17.4c-8.1,5.1-20.3,8.6-30.9,8.6-18.2,0-42.8-10.5-42.8-50.2,0-34.8,20.7-56.9,43.1-56.9,12.9,0,19.1,6.9,23,6.9,2.6,0,4.5-2.6,5.1-6.9h2.7Z"/>
      <path class="st3" d="M-1366.2,336.64l-5,31.5h-71.5v-2.7c8.1.5,10.7-2.7,10.7-10.4v-76.1c0-7.4-1.7-10.8-10.7-10.5v-2.7h69.2v29.3h-2.7c-1.2-10.5-5-23.7-27.3-23.7h-7.8v42c11.4-.5,17.6-7.4,17.6-23.6h2.7v52.1h-2.7c0-15.8-6-22.8-17.6-23v31.5c0,10.2,1.5,12.2,8.9,12.2,19.4,0,27-7.1,33.5-26h2.7v.1Z"/>
      <path class="st3" d="M-1306.8,370.54c-18.2,0-44-11.6-44-53.2s27.3-53.9,43.7-53.9c19.8,0,44,13.8,44,53.9s-26.2,53.2-43.7,53.2ZM-1306.9,269.04c-16.1,0-20.7,17.1-20.7,47.3,0,26,2.6,48.7,20.7,48.7s20.7-20.1,20.7-49-3.7-47-20.7-47Z"/>
      <path class="st3" d="M-1165.5,368.34h-26.1l-23.3-47.8h-3.8v34.8c0,8.4,2.7,10.2,10.2,10.2v2.7h-40.7v-2.7c7.5.2,9.8-3.2,9.8-10.1v-76.6c0-7.1-2.3-10.5-9.8-10.2v-2.7h40.2c25.2,0,33.6,13.1,33.6,27.9,0,13.1-6.9,22.5-18.5,25.7l16.8,34.8c4.7,9.5,6.5,11.3,11.4,11.3v2.7h.2ZM-1218.6,316.04h3.6c12.5,0,18.2-6.2,18.2-23.1,0-15.8-5.3-21.5-20-21.5h-1.8v44.6Z"/>
      <path class="st3" d="M-1075.7,263.54v34.8h-2.7c-3.8-18-14-29.3-26.6-29.3-16.5,0-21.5,18.8-21.5,52.6,0,31.8,7.1,43.4,20.6,43.4,3.9,0,7.4-1.1,9.3-3v-24.5c0-6.9-2.6-10.4-10.5-9.9v-2.7h39.8v2.7c-7.1.3-8.6,3-8.6,17v17.4c-8.1,5.1-20.3,8.6-30.9,8.6-18.2,0-42.8-10.5-42.8-50.2,0-34.8,20.7-56.9,43.1-56.9,12.9,0,19.1,6.9,23,6.9,2.6,0,4.5-2.6,5.1-6.9h2.7Z"/>
      <path class="st3" d="M-1011.4,265.94v2.7c-5.9-.3-9.3,2.4-9.3,9.6v77c0,7.2,2.1,10.4,9.3,10.4v2.7h-39v-2.7c6.3.2,9-3,9-10.2v-76.6c0-5.6-1.2-10.4-9-10.2v-2.7h39Z"/>
      <path class="st3" d="M-916.4,368.34h-36v-2.7c5.7,0,7.5-1.4,7.5-4.1,0-1.5-.6-4.7-1.4-7.4l-5.2-15.2h-21.9l-4.5,15.1c-1.2,4.1-1.5,5.3-1.5,6.5,0,3.2,2.1,5.1,7.5,5v2.7h-21.2v-2.7c5.3-.9,6.9-3.3,11-16.4l26.9-85.8h2.7l26,86.8c3.6,12.3,5.6,14.7,10.1,15.3v2.9ZM-961.6,302.84h-.3l-9.6,30.7h18.4l-8.5-30.7Z"/>
    </g>
    <path class="st2" d="M-782.7,297.64c-3-16.8-12.9-27.8-24.9-27.8-8.4,0-15,6.5-15,15,0,5,2.3,8.3,4.7,10.7,7.4,7.4,23.9,12.8,32.9,21.8,6.5,6.5,9.3,14.6,9.3,23.3,0,17.7-12.3,30.8-28.8,30.8-10.8,0-19.2-6-23.4-6-2.7,0-4.5,2-5.4,6h-2.6v-38h2.7c2.6,18.9,13.8,32.4,27.3,32.4,8.9,0,15.3-7.2,15.3-17.1,0-6-1.4-8.7-5.1-12.5-6.3-6.3-23.4-13.7-31.1-21.3-6.8-6.8-9.3-13.4-9.3-22.1,0-16.8,10.7-28.5,26-28.5,10.8,0,17.3,6.5,21.6,6.5,2.9,0,4.2-1.8,5-6.5h2.7l.9,33.3h-2.8Z"/>
    <path class="st2" d="M-731.5,356.54c0,7.2,2.4,10.4,11.1,9.9v2.7h-41.4v-2.7c7.8.2,9.6-3.5,9.6-10.4v-76.4c0-6.5-2-10.7-9.6-10.2v-2.7h34.8c21.8,0,28.5,3,33.6,8.1,4.7,4.7,8.1,11.9,8.1,19.2,0,12-8,28.5-36.5,28.5h-9.8v34h.1ZM-731.5,317.04h6.3c12.5,0,16.8-8,16.8-22.8s-5.3-21.9-17.9-21.9h-5.3v44.7h.1Z"/>
    <path class="st2" d="M-606.4,369.04h-36v-2.7c5.7,0,7.5-1.4,7.5-4.1,0-1.5-.6-4.7-1.4-7.4l-5.2-15.2h-21.9l-4.5,15.1c-1.2,4.1-1.5,5.3-1.5,6.5,0,3.2,2.1,5.1,7.5,5v2.7h-21.2v-2.7c5.3-.9,6.9-3.3,11-16.4l26.9-85.8h2.7l26,86.8c3.6,12.3,5.6,14.7,10.1,15.3v2.9ZM-651.6,303.64h-.3l-9.6,30.7h18.4l-8.5-30.7Z"/>
    <path class="st2" d="M-469,298.64c-2-16.2-12-27.9-23.9-27.9-5.3,0-9.8,2.3-13.4,5.9-7.4,7.4-10.7,21.2-10.7,41.3,0,21.9,3.3,34.4,10.2,41.3,3.3,3.3,7.7,5.6,13.1,5.6,11.1,0,17.7-6.3,27.3-18v7.7c-7.4,10.8-18.9,17-31.7,17-24.8,0-42-21-42-51.4s18.5-55.7,42.6-55.7c13.7,0,18.8,7.1,24.3,7.1,2.3,0,3.2-2,4.1-7.1h2.7v34.4h-2.6v-.2Z"/>
    <path class="st2" d="M-400.6,371.34c-18.2,0-44-11.6-44-53.2s27.3-53.9,43.7-53.9c19.8,0,44,13.8,44,53.9s-26.3,53.2-43.7,53.2ZM-400.8,269.84c-16.1,0-20.7,17.1-20.7,47.3,0,26,2.6,48.7,20.7,48.7s20.7-20.1,20.7-49c.1-28.7-3.7-47-20.7-47Z"/>
    <path class="st2" d="M-316,359.84c0,6.2-4.8,11.1-11,11.1s-11.1-5-11.1-11.1,5-11,11.1-11,11,4.8,11,11Z"/>
  </g>
  <g id="Layer_2">
    <path class="st5" d="M350.92,79.59c17.51.92,33.87,5.76,49.31,14.29,12.9,7.14,24.65,15.9,35.25,26.27,8.99,8.99,17.74,17.74,26.73,26.73,7.83,7.83,15.67,15.44,23.5,23.04,7.83,7.83,15.44,15.67,23.27,23.5,7.83,7.83,15.67,15.44,23.5,23.27,5.53,5.3,10.6,11.06,16.13,16.36,5.76,5.76,11.52,11.29,17.28,17.05,4.84,4.84,9.45,9.45,14.06,14.29,9.45,10.14,18.66,20.51,25.58,32.72,3.69,6.22,6.45,12.9,8.3,19.82.23.92.69,1.84,0,2.77-1.38.69-2.07-.69-2.77-1.15-12.67-8.76-24.65-18.2-36.64-27.65-12.21-9.68-24.42-19.36-36.64-29.26-12.44-10.14-24.89-20.51-37.33-30.88-11.29-9.45-22.58-18.66-33.87-28.11-10.37-8.53-20.74-17.05-31.34-25.35-11.52-9.22-24.19-15.67-38.94-18.43-9.22-1.61-17.97-.92-26.96,1.38-13.36,3.46-24.42,11.06-34.56,19.82-15.67,13.36-29.26,29.03-43.09,44.24-10.83,11.98-21.66,23.73-33.18,35.25-10.37,10.37-21.43,20.05-33.18,29.03-10.83,8.06-22.12,15.21-34.56,20.74-18.89,8.3-38.48,12.67-59.22,11.75-15.9-.69-31.34-3.69-46.31-9.68-2.77-1.15-5.53-1.38-8.06-3.23-.23-1.84,1.38-2.77,2.53-3.69l30.18-30.18c26.5-26.73,53-53.46,79.49-80.19,5.76-5.99,11.52-11.98,17.51-17.74,1.61-1.61,2.3-3.23,2.3-5.53v-89.17c0-.69-.23-1.61-.46-2.3h43.32c1.84,2.07,1.38,4.84,1.38,7.37v80.42c0,1.84,0,3.46.23,5.3.23,1.38,1.15,2.3,2.77,2.07,1.38,0,2.3-.69,2.77-2.07.23-1.38.23-2.77.23-4.38,0-12.67.23-25.58,0-38.25,0-5.3,1.61-9.68,5.3-13.36,16.59-16.36,35.48-29.26,58.53-35.02,6.45-1.61,12.9-1.61,19.59-1.61,2.53-.46,5.3-1.15,8.06-.23h0Z"/>
    <path class="st4" d="M524.66,618.31H173.5c-1.84-1.15-3.92.23-5.76-.92-19.36-5.07-33.18-16.82-41.71-34.56-4.15-8.76-5.76-18.2-7.14-27.65-2.07-16.13-2.07-32.26-3-48.39-.69-11.75-1.61-23.5-4.38-35.02-2.77-11.29-8.06-21.2-16.59-29.26-.46-.46-.92-.92-1.38-1.38,0,0,0-.23-.23-.92,1.84-.69,3.69,0,5.3.23,12.67,2.07,24.89,6.22,37.1,9.45,27.88,7.6,56.22,13.83,84.79,17.97,17.28,2.53,34.56,4.15,52.07,5.07,27.42,1.15,54.61-.69,81.34-7.83,21.89-5.76,41.71-16.13,59.91-29.72,14.06-10.37,27.19-21.89,41.48-31.8,16.13-11.29,33.18-19.59,52.77-22.81,11.75-2.07,23.5-1.84,35.48-1.15,18.43,1.15,36.41,5.07,53.92,11.29,4.15,1.38,8.53,2.77,12.44,4.84.23,1.61-.92,2.07-1.61,2.77-7.14,8.3-11.75,17.97-14.75,28.34-3.69,12.67-5.76,25.58-6.91,38.48-2.07,22.81-3.92,45.62-5.3,68.43-.69,11.06-1.38,22.12-3.23,32.95-4.61,24.89-19.12,41.71-43.32,49.77-1.15.46-2.53.69-3.69,1.15-1.61.92-3.46-.23-4.84.92h-.46l-1.15-.23Z"/>
    <path class="st0" d="M64.97,411.85l35.25,3.46c35.95,3.46,72.12,5.76,108.3,4.15,25.12-.92,50-3.46,74.42-10.37,21.89-6.22,41.94-16.13,61.52-27.88,16.59-9.91,32.95-20.28,49.54-30.42,10.83-6.68,21.89-12.44,33.41-17.97,31.34-14.98,63.36-17.05,96.54-6.91,18.2,5.53,35.71,13.13,52.77,21.66,21.43,11.06,42.17,23.5,62.67,36.18-.23,2.3-1.84,1.15-3,.92-17.28-5.07-34.79-9.91-52.07-14.75-20.28-5.76-40.78-9.68-61.98-9.45-21.43.23-41.24,6.45-59.45,17.51-11.52,7.14-22.35,15.44-33.18,23.5-17.28,12.9-35.48,24.65-55.3,33.41-21.89,9.45-44.7,15.21-68.43,17.74-32.03,3.69-63.83,2.3-95.62-1.84-50.92-6.68-100.23-19.82-148.39-38.02-.46-.23-.92-.46-1.38-.69.69-1.84,2.53-.46,4.38-.23h0Z"/>
    <path class="st0" d="M461.98,269.68c-.69,25.35-21.2,45.39-46.08,44.7-25.35-.46-45.16-21.43-44.47-46.77.69-24.65,21.66-44.47,46.54-43.78,24.65.92,44.47,21.43,44.01,45.85Z"/>
  </g>
</svg>